<?xml version="1.0" standalone="no"?><!DOCTYPE svg PUBLIC "-//W3C//DTD SVG 1.1//EN" "http://www.w3.org/Graphics/SVG/1.1/DTD/svg11.dtd"><svg t="1713103279356" class="icon" viewBox="0 0 2171 1024" version="1.1" xmlns="http://www.w3.org/2000/svg" p-id="4483" xmlns:xlink="http://www.w3.org/1999/xlink" width="424.0234375" height="200"><path d="M1928.792762 8.94226667c44.693897 15.486971 89.385442 31.051536 135.694696 47.128689-36.613584 53.867573-71.059251 104.504432-107.909143 158.685906h132.344064v406.190586h-129.033405c-0.708923 6.265093-1.65533 10.678521-1.65533 15.091949-0.078769 62.733226-0.078769 125.466452-0.038797 188.199679 0 3.506994 0.038797 7.053961 0.353874 10.560955 0.985203 12.018774 2.759274 23.880009 16.474526 28.214668 17.656064 5.594967 37.756326 1.615357 43.983798-12.373823 8.434186-18.914021 14.345405-39.365805 18.207449-59.73882 4.020758-21.081938 4.295862-42.911596 6.424982-67.146654 43.47121 17.614916 85.602168 34.677272 127.733126 51.699655 0.078769 3.506994 0.078769 7.013989 0.078769 10.522159-4.768478 24.627729-8.789235 49.452969-14.542916 73.845566-4.690884 19.859251-10.287026 39.640909-17.538499 58.673671-14.030328 36.962755-43.786287 56.429336-80.951256 62.930738-50.605116 8.826856-101.997924 8.786884-152.60304 0.591357-51.944193-8.394214-84.73453-43.779233-86.508601-96.188988-2.719302-79.638044-1.615357-159.394829-2.087973-239.111642-0.039972-7.486604 0-15.01318 0-23.760091h-67.473488c-1.695302 20.056762-2.245511 39.837245-5.242268 59.265028-6.226296 40.468574-12.335026 81.017093-21.005521 121.013052-11.942356 55.049111-43.511183 97.725575-88.952799 130.786315-39.135375 28.450976-81.85769 50.20304-126.038999 68.644445A109814.621759 109814.621759 0 0 1 1423.731509 888.82514167c10.719669-4.610939 21.400542-9.103137 32.001469-13.792845 36.180941-15.998383 70.114021-35.424992 98.924749-63.048303 17.774806-17.062356 30.62242-36.765245 37.124996-60.644078 11.27223-41.533722 15.568092-83.815164 16.670861-129.407265h-122.372114v-406.743146h21.518107c95.770452 0 191.540905-0.315077 287.272561 0.355049 13.755224 0.078769 21.124262-4.138324 27.193019-16.31346 29.8747-59.700023 60.577065-119.003848 90.963178-178.427591 0.263348-0.513763 0.516115-1.045162 0.761828-1.585966l0.210443-0.465561 0.104634-0.233957 0.206916-0.470264 0.620749-1.41667 0.209267-0.470264 0.211619-0.469089c2.339564-5.130581 5.251674-9.586333 13.438971-6.748289z m19.391339 338.807624h-320.811793l-0.001176 0.074066H1627.120716v137.552239h0.250416v0.252767h320.812969V347.74989067zM0.007054 886.63841367c42.319063-8.785708 83.22028-16.271137 123.571288-25.845713 64.640147-15.365878 127.980014-34.630246 185.021869-70.128128 20.235463-12.606604 39.36698-26.750971 55.035004-49.36597H8.746912V628.03079967c7.637088-0.353874 14.997897-0.945231 22.398677-0.945231 118.572381-0.078769 237.10479-0.039972 355.675995-0.039972 21.415825 0 21.848468 0.039972 24.801727-21.549851 2.321929-17.296312 3.424698-34.748987 5.275187-54.093299H72.67696V441.87676967H911.931371v108.265369H560.900409a82136.474305 82136.474305 0 0 0-7.833424 76.588381h427.283105v113.977901H612.036923c-0.313901 1.65533-0.668951 3.309483-0.984027 4.926016 106.013979 91.913111 237.459839 114.921956 369.454732 131.626912-25.273166 37.190834-49.994948 74.027793-75.544395 110.313369-2.755747 3.90084-10.904248 6.816478-15.864358 5.988812-149.868455-25.175587-289.265304-72.058563-392.719872-192.025276-1.062797-1.220335-2.913286-1.772896-4.606236-2.756923-74.007807 88.408468-175.377929 131.115499-280.171573 167.519816-38.14547 13.275555-77.354912 23.597851-116.249277 34.62907-4.487495 1.261483-12.635995 0.395022-14.840358-2.599385C53.427876 961.61143867 27.090737 924.42060467 0.007054 886.63841367zM115.22175 371.33716067V46.85495567h754.773823v211.337846H735.502402V157.04958267H251.014025V371.33716067H115.22175z" fill="#ffffff" p-id="4484"></path><path d="M1386.80755 721.95076267a107784.434186 107784.434186 0 0 0 88.368496-71.150952c5.044758 28.619095 9.380592 53.688873 13.991531 78.719853 2.956785 16.121828 5.518549 32.401194 9.893181 48.169148 3.035555 10.958328-0.393846 16.674388-8.829208 23.45442-50.844951 40.64022-101.373649 81.714259-151.47088 123.262089-14.385378 11.943532-26.999036 26.016184-41.97577 40.640221-23.3733-28.736661-46.825369-57.590889-71.301437-87.666627 25.107398-32.087293 25.580014-70.007036 25.422475-108.361773-0.355049-93.776533-0.117566-187.593038-0.117566-281.370746v-20.851509H1162.734953V326.66207467h224.0338c0.038797 130.474765 0.038797 261.148216 0.038797 395.288688zM1341.106113 264.35208567c-46.288092-60.398365-92.458618-120.599219-139.574375-182.101529 31.39718-25.902145 63.306948-52.198135 97.147151-80.070687 52.709548 58.190475 104.473865 115.355775 157.971104 174.452684A147269.030062 147269.030062 0 0 0 1341.106113 264.35208567zM1712.943908 31.78887067L1621.242416-20.87835333l-91.701493 52.667224v105.374421l91.701493 52.667223 91.701492-52.667223v-105.374421z m-91.701492-41.821759l82.296211 47.265066v94.486631l-82.297387 47.265066L1538.946204 131.71880867V37.23217767l82.296212-47.265066z" fill="#ffffff" p-id="4485"></path><path d="M1625.945056 84.47608067v99.931114h-9.405281V84.47608067z" fill="#ffffff" p-id="4486"></path><path d="M1536.585479 30.43215967l86.998852 49.965556-4.68383 8.156731-86.998852-49.965557z" fill="#ffffff" p-id="4487"></path><path d="M1705.899352 30.43215967l4.683831 8.15673-86.998852 49.965557-4.68383-8.156731zM777.11842 286.10179867v9.405281H233.963426v-9.405281zM574.904873 324.89858367v9.405282H233.963426v-9.405282zM677.187307 361.34404867v9.405282H233.963426v-9.405282z" fill="#ffffff" p-id="4488"></path><path d="M793.577662 267.87906667c-12.336202 0-22.337543 10.001341-22.337543 22.337543s10.001341 22.337543 22.337543 22.337543 22.337543-10.001341 22.337544-22.337543-10.001341-22.337543-22.337544-22.337543z m0 9.405281c7.142135 0 12.932262 5.790126 12.932262 12.932262s-5.790126 12.932262-12.932262 12.932261-12.932262-5.790126-12.932261-12.932261 5.790126-12.932262 12.932261-12.932262zM591.364115 307.85151167c-12.336202 0-22.337543 10.001341-22.337543 22.337543s10.001341 22.337543 22.337543 22.337543 22.337543-10.001341 22.337543-22.337543-10.001341-22.337543-22.337543-22.337543z m0 9.405281c7.142135 0 12.932262 5.790126 12.932262 12.932262s-5.790126 12.932262-12.932262 12.932262-12.932262-5.790126-12.932262-12.932262 5.790126-12.932262 12.932262-12.932262zM697.173529 343.12131667c-12.336202 0-22.337543 10.001341-22.337543 22.337543s10.001341 22.337543 22.337543 22.337543 22.337543-10.001341 22.337543-22.337543-10.001341-22.337543-22.337543-22.337543z m0 9.405281c7.142135 0 12.932262 5.790126 12.932262 12.932262s-5.790126 12.932262-12.932262 12.932262-12.932262-5.790126-12.932261-12.932262 5.790126-12.932262 12.932261-12.932262z" fill="#ffffff" p-id="4489"></path></svg>